<svg width="375" height="625" viewBox="0 0 375 625" fill="none" xmlns="http://www.w3.org/2000/svg">
<path d="M0 0H275C330.228 0 375 44.7715 375 100V625H100C44.7715 625 0 580.228 0 525V0Z" fill="url(#paint0_linear_0_154)"/>
<mask id="mask0_0_154" style="mask-type:luminance" maskUnits="userSpaceOnUse" x="0" y="0" width="375" height="625">
<path d="M0 0H275C330.228 0 375 44.7715 375 100V625H100C44.7715 625 0 580.228 0 525V0Z" fill="white"/>
</mask>
<g mask="url(#mask0_0_154)">
<rect width="349" height="350" rx="174.5" transform="matrix(1 0 0 -1 14 240)" fill="#3E4062"/>
<rect opacity="0.5" x="0.5" y="-0.5" width="601" height="603" rx="300.5" transform="matrix(1 0 0 -1 -113 366)" stroke="#878D92"/>
<rect x="0.5" y="-0.5" width="399" height="400" rx="199.5" transform="matrix(1 0 0 -1 -12 265)" stroke="#878D92"/>
</g>
<defs>
<linearGradient id="paint0_linear_0_154" x1="-187.5" y1="312.5" x2="363.971" y2="643.382" gradientUnits="userSpaceOnUse">
<stop stop-color="#2D2E40"/>
<stop offset="1" stop-color="#3F4164"/>
</linearGradient>
</defs>
</svg>
